<svg fill="none" height="17" viewBox="0 0 19 17" width="19" xmlns="http://www.w3.org/2000/svg"><path d="m19 2.51506c-.7066.30994-1.4594.51538-2.2444.61513.8075-.48213 1.4238-1.23975 1.7136-2.15294-.7529.44887-1.5841.76594-2.47.94288-.7149-.76119-1.7338-1.23263-2.8453-1.23263-2.1565 0-3.89259 1.75038-3.89259 3.89619 0 .30875.02613.60562.09025.88825-3.23831-.15794-6.10375-1.71-8.02869-4.07431-.336058.58306-.533182 1.25043-.533182 1.96887 0 1.349.694692 2.54481 1.730192 3.23712-.62582-.01187-1.23975-.19356-1.75988-.47974v.04275c0 1.89287 1.35019 3.46512 3.12075 3.82731-.31706.08666-.66263.12826-1.02125.12826-.24937 0-.50113-.0143-.73744-.0665.50469 1.5426 1.93682 2.6766 3.63969 2.7134-1.32525 1.0367-3.00794 1.6613-4.829562 1.6613-.319438 0-.625813-.0142-.932188-.0534 1.72544 1.1127 3.77031 1.748 5.9755 1.748 7.1677 0 11.0865-5.9375 11.0865-11.08413 0-.17218-.0059-.33843-.0142-.50349.773-.54863 1.4226-1.23382 1.9522-2.02232z" fill="#a2a9b2"/></svg>