<svg fill="none" height="17" viewBox="0 0 17 17" width="17" xmlns="http://www.w3.org/2000/svg" xmlns:xlink="http://www.w3.org/1999/xlink"><clipPath id="a"><path d="m0 0h17v17h-17z"/></clipPath><g clip-path="url(#a)" fill="#a2a9b2"><path d="m16.9954 17.0003v-.0007h.0042v-6.2347c0-3.05012-.6566-5.39967-4.2223-5.39967-1.7142 0-2.86452.94067-3.33415 1.83246h-.04958v-1.54771h-3.38087v11.34962h3.52041v-5.6199c0-1.47972.2805-2.91055 2.11299-2.91055 1.8055 0 1.8324 1.68865 1.8324 3.00545v5.5257z"/><path d="m.28125 5.65039h3.52467v11.34961h-3.52467z"/><path d="m2.04142 0c-1.126962 0-2.04142.914458-2.04142 2.04142 0 1.12696.914458 2.06054 2.04142 2.06054 1.12695 0 2.04141-.93358 2.04141-2.06054-.00071-1.126962-.91516-2.04142-2.04141-2.04142z"/></g></svg>