<svg fill="none" height="28" viewBox="0 0 179 28" width="179" xmlns="http://www.w3.org/2000/svg"><g fill="#000"><path d="m120 21.7594v-17.51876h6.116c2.118 0 3.725.40909 4.821 1.22727 1.095.81016 1.642 2.00134 1.642 3.57353 0 .85829-.219 1.61636-.659 2.27406-.44.6497-1.051 1.127-1.835 1.4318.896.2246 1.599.6778 2.111 1.3597.519.6818.779 1.516.779 2.5026 0 1.6845-.535 2.9599-1.607 3.8262-1.071.8663-2.598 1.3075-4.581 1.3236zm3.598-7.6284v4.7286h3.081c.848 0 1.507-.2005 1.979-.6016.48-.4091.72-.9706.72-1.6845 0-1.6042-.828-2.4184-2.483-2.4425zm0-2.5508h2.662c1.815-.0321 2.722-.758 2.722-2.17779 0-.79412-.232-1.36364-.696-1.70856-.455-.35294-1.179-.52941-2.17-.52941h-2.518z"/><path d="m139.283 18.8596h7.639v2.8998h-11.237v-17.51876h3.598z"/><path d="m162.571 13.3971c0 1.7246-.304 3.2366-.911 4.5361-.608 1.2994-1.479 2.3021-2.614 3.008-1.128.7059-2.423 1.0588-3.886 1.0588-1.447 0-2.738-.3489-3.873-1.0468s-2.015-1.6925-2.638-2.9839c-.624-1.2995-.94-2.7915-.948-4.476v-.8663c0-1.7246.308-3.24064.924-4.54812.623-1.31551 1.499-2.3222 2.626-3.02006 1.135-.70588 2.43-1.05882 3.885-1.05882s2.746.35294 3.874 1.05882c1.135.69786 2.01 1.70455 2.626 3.02006.623 1.30748.935 2.81952.935 4.53612zm-3.645-.7942c0-1.8369-.328-3.23258-.984-4.18712-.655-.95455-1.591-1.43182-2.806-1.43182-1.207 0-2.138.47326-2.794 1.41978-.655.93851-.987 2.31816-.995 4.13906v.8543c0 1.7887.328 3.1764.983 4.1631.656.9866 1.599 1.4799 2.83 1.4799 1.207 0 2.135-.4733 2.782-1.4198.648-.9545.976-2.3422.984-4.1631z"/><path d="m179 19.5455c-.648.778-1.563 1.3836-2.746 1.8168-1.183.4251-2.494.6377-3.933.6377-1.511 0-2.839-.3289-3.982-.9866-1.135-.6658-2.014-1.6284-2.638-2.8877-.616-1.2594-.931-2.7393-.947-4.4399v-1.1911c0-1.7487.291-3.26074.875-4.53614.592-1.28343 1.439-2.26204 2.542-2.93583 1.112-.68182 2.411-1.02273 3.898-1.02273 2.07 0 3.689.49733 4.856 1.49198 1.168.98663 1.859 2.42647 2.075 4.31952h-3.502c-.16-1.00268-.515-1.73663-1.067-2.20187-.544-.46524-1.295-.69787-2.254-.69787-1.224 0-2.155.46123-2.794 1.38369-.64.92246-.964 2.29415-.972 4.11495v1.119c0 1.8369.348 3.2246 1.043 4.1631.696.9385 1.715 1.4078 3.058 1.4078 1.351 0 2.315-.2888 2.89-.8663v-3.0201h-3.273v-2.6591h6.871z"/><path d="m8.272 8.344 2.832 6.552h-5.52zm-7.872 13.32v.336h4.536v-.336h-2.136l2.664-6.432h5.76l2.784 6.432h-2.232v.336h8.064v-.336h-2.064l-7.56-17.424h-.648l-7.152 17.424zm19.6509-16.752v.336h2.208v16.416h-2.208v.336h7.896v-.336h-2.208v-8.208h6.936v8.208h-2.208v.336h7.896v-.336h-2.208v-16.416h2.208v-.336h-7.896v.336h2.208v7.872h-6.936v-7.872h2.208v-.336zm26.4242 3.432 2.832 6.552h-5.52zm-7.872 13.32v.336h4.536v-.336h-2.136l2.664-6.432h5.76l2.784 6.432h-2.232v.336h8.064v-.336h-2.064l-7.56-17.424h-.648l-7.152 17.424zm20.323-4.992v5.328h.384c.08-.224.168-.368.264-.432.096-.08.256-.12.48-.12.16 0 .4.048.72.144.336.096.712.2 1.128.312.432.096.888.192 1.368.288.496.096.992.144 1.488.144.992 0 1.888-.152 2.688-.456.816-.32 1.512-.744 2.088-1.272.592-.528 1.048-1.144 1.368-1.848s.48-1.448.48-2.232c0-.8-.152-1.472-.456-2.016-.288-.544-.672-1.008-1.152-1.392s-1.032-.696-1.656-.936c-.608-.256-1.24-.488-1.896-.696-.64-.208-1.272-.408-1.896-.6-.608-.192-1.152-.416-1.632-.672-.48-.272-.872-.592-1.176-.96-.288-.368-.432-.832-.432-1.392 0-.368.088-.728.264-1.08s.432-.672.768-.96.744-.52 1.224-.696c.496-.176 1.064-.264 1.704-.264.784 0 1.432.136 1.944.408s.936.632 1.272 1.08c.336.432.608.92.816 1.464.224.544.432 1.096.624 1.656h.312v-4.56h-.384c-.08.192-.16.328-.24.408-.064.064-.208.096-.432.096-.192 0-.408-.048-.648-.144-.224-.096-.488-.192-.792-.288-.304-.112-.656-.216-1.056-.312s-.864-.144-1.392-.144c-.832 0-1.608.144-2.328.432-.704.272-1.312.64-1.824 1.104-.512.448-.912.968-1.2 1.56s-.432 1.208-.432 1.848c0 .864.136 1.584.408 2.16.288.576.664 1.064 1.128 1.464.464.384.992.704 1.584.96.592.24 1.2.456 1.824.648.624.176 1.232.352 1.824.528s1.12.392 1.584.648.832.576 1.104.96c.288.384.432.872.432 1.464 0 .32-.064.696-.192 1.128-.128.416-.352.816-.672 1.2-.304.384-.728.712-1.272.984-.544.256-1.24.384-2.088.384-.24 0-.504 0-.792 0-.272-.016-.568-.064-.888-.144-.304-.096-.632-.24-.984-.432-.336-.192-.688-.472-1.056-.84-.336-.32-.624-.664-.864-1.032-.224-.384-.416-.752-.576-1.104-.144-.368-.256-.704-.336-1.008-.08-.32-.136-.576-.168-.768zm14.8905-11.76v.336h2.208v16.416h-2.208v.336h7.896v-.336h-2.208v-8.208h6.936v8.208h-2.208v.336h7.896v-.336h-2.208v-16.416h2.208v-.336h-7.896v.336h2.208v7.872h-6.936v-7.872h2.208v-.336zm26.4244 3.432 2.832 6.552h-5.5202zm-7.8723 13.32v.336h4.5361v-.336h-2.136l2.664-6.432h5.7602l2.784 6.432h-2.232v.336h8.064v-.336h-2.064l-7.56-17.424h-.648l-7.1522 17.424z"/></g></svg>